solid stamper
facet normal 0.0 -0.308248947693876 0.951305727011889
outer loop
vertex 66.6 11.5371236811544 46.0372511311951
vertex 1.69197988952874e-014 13.296130368828 46.607217173726
vertex 1.69197988952874e-014 11.5371236811544 46.0372511311951
endloop
endfacet
facet normal 0.0 -0.308248947693876 0.951305727011889
outer loop
vertex 1.69197988952874e-014 13.296130368828 46.607217173726
vertex 66.6 11.5371236811544 46.0372511311951
vertex 66.6 13.296130368828 46.607217173726
endloop
endfacet
facet normal 0.0 -0.104260778534382 0.994549993745616
outer loop
vertex 66.6 13.296130368828 46.607217173726
vertex 1.69197988952874e-014 15.1350976330316 46.8
vertex 1.69197988952874e-014 13.296130368828 46.607217173726
endloop
endfacet
facet normal 0.0 -0.104260778534382 0.994549993745616
outer loop
vertex 1.69197988952874e-014 15.1350976330316 46.8
vertex 66.6 13.296130368828 46.607217173726
vertex 66.6 15.1350976330316 46.8
endloop
endfacet
facet normal 0.0 0.104260778534382 0.994549993745616
outer loop
vertex 66.6 15.1350976330316 46.8
vertex 1.69197988952874e-014 16.9740648972352 46.607217173726
vertex 1.69197988952874e-014 15.1350976330316 46.8
endloop
endfacet
facet normal 0.0 0.104260778534382 0.994549993745616
outer loop
vertex 1.69197988952874e-014 16.9740648972352 46.607217173726
vertex 66.6 15.1350976330316 46.8
vertex 66.6 16.9740648972352 46.607217173726
endloop
endfacet
facet normal 0.0 0.308248947693876 0.951305727011889
outer loop
vertex 66.6 16.9740648972352 46.607217173726
vertex 1.69197988952874e-014 18.7330715849087 46.0372511311951
vertex 1.69197988952874e-014 16.9740648972352 46.607217173726
endloop
endfacet
facet normal 0.0 0.308248947693876 0.951305727011889
outer loop
vertex 1.69197988952874e-014 18.7330715849087 46.0372511311951
vertex 66.6 16.9740648972352 46.607217173726
vertex 66.6 18.7330715849087 46.0372511311951
endloop
endfacet
facet normal 0.0 0.498834070452189 0.866697507874633
outer loop
vertex 66.6 18.7330715849087 46.0372511311951
vertex 1.69197988952874e-014 20.335633904522 45.1148847025592
vertex 1.69197988952874e-014 18.7330715849087 46.0372511311951
endloop
endfacet
facet normal 0.0 0.498834070452189 0.866697507874633
outer loop
vertex 1.69197988952874e-014 20.335633904522 45.1148847025592
vertex 66.6 18.7330715849087 46.0372511311951
vertex 66.6 20.335633904522 45.1148847025592
endloop
endfacet
facet normal 0.0 0.667729269391533 0.74440420659602
outer loop
vertex 66.6 20.335633904522 45.1148847025592
vertex 1.69197988952874e-014 21.7120704596215 43.8802235236505
vertex 1.69197988952874e-014 20.335633904522 45.1148847025592
endloop
endfacet
facet normal 0.0 0.667729269391533 0.74440420659602
outer loop
vertex 1.69197988952874e-014 21.7120704596215 43.8802235236505
vertex 66.6 20.335633904522 45.1148847025592
vertex 66.6 21.7120704596215 43.8802235236505
endloop
endfacet
facet normal 0.0 0.8075907718721 0.589743287530283
outer loop
vertex 1.69197988952874e-014 21.7120704596215 43.8802235236505
vertex 66.6 22.8025320823375 42.3869521932145
vertex 1.69197988952874e-014 22.8025320823375 42.3869521932145
endloop
endfacet
facet normal 0.0 0.8075907718721 0.589743287530283
outer loop
vertex 66.6 22.8025320823375 42.3869521932145
vertex 1.69197988952874e-014 21.7120704596215 43.8802235236505
vertex 66.6 21.7120704596215 43.8802235236505
endloop
endfacet
facet normal -3.18912084538911e-019 0.912337226371011 0.409439599181186
outer loop
vertex 1.69197988952874e-014 22.8025320823375 42.3869521932145
vertex 66.6 23.5596041494009 40.7
vertex 0.0 23.5596041494009 40.7
endloop
endfacet
facet normal -3.18912084538911e-019 0.912337226371011 0.409439599181186
outer loop
vertex 66.6 23.5596041494009 40.7
vertex 1.69197988952874e-014 22.8025320823375 42.3869521932145
vertex 66.6 22.8025320823375 42.3869521932145
endloop
endfacet
facet normal -8.22546191822731e-033 0.671182404240483 0.741292236731213
outer loop
vertex 66.6 6.71059111666229 33.35
vertex 5.6399329650958e-014 7.75656689202569 32.402950373821
vertex 5.6399329650958e-014 6.71059111666229 33.35
endloop
endfacet
facet normal -8.22546191822731e-033 0.671182404240483 0.741292236731213
outer loop
vertex 5.6399329650958e-014 7.75656689202569 32.402950373821
vertex 66.6 6.71059111666229 33.35
vertex 66.6 7.75656689202569 32.402950373821
endloop
endfacet
facet normal 0.0 0.775571370692075 0.631259890190099
outer loop
vertex 5.6399329650958e-014 7.75656689202569 32.402950373821
vertex 66.6 8.64728518149406 31.3086061656764
vertex 5.6399329650958e-014 8.64728518149406 31.3086061656764
endloop
endfacet
facet normal 0.0 0.775571370692075 0.631259890190099
outer loop
vertex 66.6 8.64728518149406 31.3086061656764
vertex 5.6399329650958e-014 7.75656689202569 32.402950373821
vertex 66.6 7.75656689202569 32.402950373821
endloop
endfacet
facet normal 0.0 0.862118958691389 0.506705931546962
outer loop
vertex 5.6399329650958e-014 8.64728518149406 31.3086061656764
vertex 66.6 9.36225574690583 30.0921418597111
vertex 5.6399329650958e-014 9.36225574690583 30.0921418597111
endloop
endfacet
facet normal 0.0 0.862118958691389 0.506705931546962
outer loop
vertex 66.6 9.36225574690583 30.0921418597111
vertex 5.6399329650958e-014 8.64728518149406 31.3086061656764
vertex 66.6 8.64728518149406 31.3086061656764
endloop
endfacet
facet normal 0.0 0.928834212499241 0.370495621689265
outer loop
vertex 5.6399329650958e-014 9.36225574690583 30.0921418597111
vertex 66.6 9.88503128125382 28.7815412120003
vertex 5.6399329650958e-014 9.88503128125382 28.7815412120003
endloop
endfacet
facet normal 0.0 0.928834212499241 0.370495621689265
outer loop
vertex 66.6 9.88503128125382 28.7815412120003
vertex 5.6399329650958e-014 9.36225574690583 30.0921418597111
vertex 66.6 9.36225574690583 30.0921418597111
endloop
endfacet
facet normal 0.0 0.974182402835119 0.225762366231384
outer loop
vertex 5.6399329650958e-014 9.88503128125382 28.7815412120003
vertex 66.6 10.2035857653909 27.406953507367
vertex 5.6399329650958e-014 10.2035857653909 27.406953507367
endloop
endfacet
facet normal 0.0 0.974182402835119 0.225762366231384
outer loop
vertex 66.6 10.2035857653909 27.406953507367
vertex 5.6399329650958e-014 9.88503128125382 28.7815412120003
vertex 66.6 9.88503128125382 28.7815412120003
endloop
endfacet
facet normal 0.0 0.997120332055994 0.0758356341078782
outer loop
vertex 5.6399329650958e-014 10.2035857653909 27.406953507367
vertex 66.6 10.3105911166623 26.0
vertex 5.6399329650958e-014 10.3105911166623 26.0
endloop
endfacet
facet normal 0.0 0.997120332055994 0.0758356341078782
outer loop
vertex 66.6 10.3105911166623 26.0
vertex 5.6399329650958e-014 10.2035857653909 27.406953507367
vertex 66.6 10.2035857653909 27.406953507367
endloop
endfacet
facet normal 0.0 0.997120332055994 -0.0758356341078774
outer loop
vertex 5.6399329650958e-014 10.3105911166623 26.0
vertex 66.6 10.2035857653909 24.593046492633
vertex 5.6399329650958e-014 10.2035857653909 24.593046492633
endloop
endfacet
facet normal 0.0 0.997120332055994 -0.0758356341078774
outer loop
vertex 66.6 10.2035857653909 24.593046492633
vertex 5.6399329650958e-014 10.3105911166623 26.0
vertex 66.6 10.3105911166623 26.0
endloop
endfacet
facet normal 0.0 0.974182402835119 -0.225762366231385
outer loop
vertex 5.6399329650958e-014 10.2035857653909 24.593046492633
vertex 66.6 9.88503128125382 23.2184587879997
vertex 5.6399329650958e-014 9.88503128125382 23.2184587879997
endloop
endfacet
facet normal 0.0 0.974182402835119 -0.225762366231385
outer loop
vertex 66.6 9.88503128125382 23.2184587879997
vertex 5.6399329650958e-014 10.2035857653909 24.593046492633
vertex 66.6 10.2035857653909 24.593046492633
endloop
endfacet
facet normal 0.0 0.928834212499241 -0.370495621689265
outer loop
vertex 5.6399329650958e-014 9.88503128125382 23.2184587879997
vertex 66.6 9.36225574690583 21.9078581402889
vertex 5.6399329650958e-014 9.36225574690583 21.9078581402889
endloop
endfacet
facet normal 0.0 0.928834212499241 -0.370495621689265
outer loop
vertex 66.6 9.36225574690583 21.9078581402889
vertex 5.6399329650958e-014 9.88503128125382 23.2184587879997
vertex 66.6 9.88503128125382 23.2184587879997
endloop
endfacet
facet normal 0.0 0.86211895869139 -0.506705931546961
outer loop
vertex 5.6399329650958e-014 9.36225574690583 21.9078581402889
vertex 66.6 8.64728518149406 20.6913938343236
vertex 5.6399329650958e-014 8.64728518149406 20.6913938343236
endloop
endfacet
facet normal 0.0 0.86211895869139 -0.506705931546961
outer loop
vertex 66.6 8.64728518149406 20.6913938343236
vertex 5.6399329650958e-014 9.36225574690583 21.9078581402889
vertex 66.6 9.36225574690583 21.9078581402889
endloop
endfacet
facet normal 0.0 0.775571370692075 -0.631259890190099
outer loop
vertex 5.6399329650958e-014 8.64728518149406 20.6913938343236
vertex 66.6 7.7565668920257 19.597049626179
vertex 5.6399329650958e-014 7.7565668920257 19.597049626179
endloop
endfacet
facet normal 0.0 0.775571370692075 -0.631259890190099
outer loop
vertex 66.6 7.7565668920257 19.597049626179
vertex 5.6399329650958e-014 8.64728518149406 20.6913938343236
vertex 66.6 8.64728518149406 20.6913938343236
endloop
endfacet
facet normal -5.31604780590826e-033 0.671182404240481 -0.741292236731215
outer loop
vertex 66.6 7.7565668920257 19.597049626179
vertex 5.6399329650958e-014 6.71059111666229 18.65
vertex 5.6399329650958e-014 7.7565668920257 19.597049626179
endloop
endfacet
facet normal -5.31604780590826e-033 0.671182404240481 -0.741292236731215
outer loop
vertex 5.6399329650958e-014 6.71059111666229 18.65
vertex 66.6 7.7565668920257 19.597049626179
vertex 66.6 6.71059111666229 18.65
endloop
endfacet
facet normal -1.0585459769324e-017 1.0 9.59172272975475e-017
outer loop
vertex 0.0 6.71059111666229 40.7
vertex 66.6 6.71059111666229 33.35
vertex 5.6399329650958e-014 6.71059111666229 33.35
endloop
endfacet
facet normal -1.0585459769324e-017 1.0 9.59172272975475e-017
outer loop
vertex 66.6 6.71059111666229 33.35
vertex 0.0 6.71059111666229 40.7
vertex 66.6 6.71059111666229 40.7
endloop
endfacet
facet normal 0.0 -0.626012716067324 -0.779812848908001
outer loop
vertex 66.6 23.5596041494009 18.65
vertex 0.0 22.4353094116032 19.5525534824856
vertex 0.0 23.5596041494009 18.65
endloop
endfacet
facet normal 0.0 -0.626012716067324 -0.779812848908001
outer loop
vertex 0.0 22.4353094116032 19.5525534824856
vertex 66.6 23.5596041494009 18.65
vertex 66.6 22.4353094116032 19.5525534824856
endloop
endfacet
facet normal -0.0 -0.744003127681948 -0.6681761339643
outer loop
vertex 66.6 21.4719668449989 20.6252195747783
vertex 0.0 22.4353094116032 19.5525534824856
vertex 66.6 22.4353094116032 19.5525534824856
endloop
endfacet
facet normal -0.0 -0.744003127681948 -0.6681761339643
outer loop
vertex 0.0 22.4353094116032 19.5525534824856
vertex 66.6 21.4719668449989 20.6252195747783
vertex 0.0 21.4719668449989 20.6252195747783
endloop
endfacet
facet normal -0.0 -0.842363393717099 -0.53890993025311
outer loop
vertex 66.6 20.6949937551365 21.8396965254924
vertex 0.0 21.4719668449989 20.6252195747783
vertex 66.6 21.4719668449989 20.6252195747783
endloop
endfacet
facet normal -0.0 -0.842363393717099 -0.53890993025311
outer loop
vertex 0.0 21.4719668449989 20.6252195747783
vertex 66.6 20.6949937551365 21.8396965254924
vertex 0.0 20.6949937551365 21.8396965254924
endloop
endfacet
facet normal -0.0 -0.91849832838704 -0.395424861067452
outer loop
vertex 66.6 20.1248901833436 23.1639409755903
vertex 0.0 20.6949937551365 21.8396965254924
vertex 66.6 20.6949937551365 21.8396965254924
endloop
endfacet
facet normal -0.0 -0.91849832838704 -0.395424861067452
outer loop
vertex 0.0 20.6949937551365 21.8396965254924
vertex 66.6 20.1248901833436 23.1639409755903
vertex 0.0 20.1248901833436 23.1639409755903
endloop
endfacet
facet normal -0.0 -0.970399150013779 -0.241506707262005
outer loop
vertex 66.6 19.7766980235225 24.5630134061762
vertex 0.0 20.1248901833436 23.1639409755903
vertex 66.6 20.1248901833436 23.1639409755903
endloop
endfacet
facet normal -0.0 -0.970399150013779 -0.241506707262005
outer loop
vertex 0.0 20.1248901833436 23.1639409755903
vertex 66.6 19.7766980235225 24.5630134061762
vertex 0.0 19.7766980235225 24.5630134061762
endloop
endfacet
facet normal -0.0 -0.996696481713916 -0.0812165213432729
outer loop
vertex 66.6 19.6596041494008 26.0
vertex 0.0 19.7766980235225 24.5630134061762
vertex 66.6 19.7766980235225 24.5630134061762
endloop
endfacet
facet normal -0.0 -0.996696481713916 -0.0812165213432729
outer loop
vertex 0.0 19.7766980235225 24.5630134061762
vertex 66.6 19.6596041494008 26.0
vertex 0.0 19.6596041494008 26.0
endloop
endfacet
facet normal 0.0 -0.996696481713916 0.0812165213432726
outer loop
vertex 66.6 19.7766980235225 27.4369865938238
vertex 0.0 19.6596041494008 26.0
vertex 66.6 19.6596041494008 26.0
endloop
endfacet
facet normal 0.0 -0.996696481713916 0.0812165213432726
outer loop
vertex 0.0 19.6596041494008 26.0
vertex 66.6 19.7766980235225 27.4369865938238
vertex 0.0 19.7766980235225 27.4369865938238
endloop
endfacet
facet normal 0.0 -0.970399150013779 0.241506707262006
outer loop
vertex 66.6 20.1248901833436 28.8360590244097
vertex 0.0 19.7766980235225 27.4369865938238
vertex 66.6 19.7766980235225 27.4369865938238
endloop
endfacet
facet normal 0.0 -0.970399150013779 0.241506707262006
outer loop
vertex 0.0 19.7766980235225 27.4369865938238
vertex 66.6 20.1248901833436 28.8360590244097
vertex 0.0 20.1248901833436 28.8360590244097
endloop
endfacet
facet normal 0.0 -0.918498328387039 0.395424861067453
outer loop
vertex 66.6 20.6949937551365 30.1603034745076
vertex 0.0 20.1248901833436 28.8360590244097
vertex 66.6 20.1248901833436 28.8360590244097
endloop
endfacet
facet normal 0.0 -0.918498328387039 0.395424861067453
outer loop
vertex 0.0 20.1248901833436 28.8360590244097
vertex 66.6 20.6949937551365 30.1603034745076
vertex 0.0 20.6949937551365 30.1603034745076
endloop
endfacet
facet normal 0.0 -0.842363393717099 0.538909930253109
outer loop
vertex 66.6 21.4719668449989 31.3747804252217
vertex 0.0 20.6949937551365 30.1603034745076
vertex 66.6 20.6949937551365 30.1603034745076
endloop
endfacet
facet normal 0.0 -0.842363393717099 0.538909930253109
outer loop
vertex 0.0 20.6949937551365 30.1603034745076
vertex 66.6 21.4719668449989 31.3747804252217
vertex 0.0 21.4719668449989 31.3747804252217
endloop
endfacet
facet normal 0.0 -0.744003127681948 0.6681761339643
outer loop
vertex 66.6 22.4353094116032 32.4474465175145
vertex 0.0 21.4719668449989 31.3747804252217
vertex 66.6 21.4719668449989 31.3747804252217
endloop
endfacet
facet normal 0.0 -0.744003127681948 0.6681761339643
outer loop
vertex 0.0 21.4719668449989 31.3747804252217
vertex 66.6 22.4353094116032 32.4474465175145
vertex 0.0 22.4353094116032 32.4474465175145
endloop
endfacet
facet normal -0.0 -0.626012716067324 0.779812848908
outer loop
vertex 66.6 22.4353094116032 32.4474465175145
vertex 0.0 23.5596041494009 33.35
vertex 0.0 22.4353094116032 32.4474465175145
endloop
endfacet
facet normal -0.0 -0.626012716067324 0.779812848908
outer loop
vertex 0.0 23.5596041494009 33.35
vertex 66.6 22.4353094116032 32.4474465175145
vertex 66.6 23.5596041494009 33.35
endloop
endfacet
facet normal 0.0 -1.0 0.0
outer loop
vertex 66.6 23.5596041494009 18.65
vertex 0.0 23.5596041494009 11.3
vertex 66.6 23.5596041494009 11.3
endloop
endfacet
facet normal 0.0 -1.0 0.0
outer loop
vertex 0.0 23.5596041494009 11.3
vertex 66.6 23.5596041494009 18.65
vertex 0.0 23.5596041494009 18.65
endloop
endfacet
facet normal 0.0 -0.8075907718721 0.589743287530283
outer loop
vertex 66.6 8.5581248064416 43.8802235236505
vertex 1.69197988952874e-014 7.46766318372564 42.3869521932145
vertex 66.6 7.46766318372564 42.3869521932145
endloop
endfacet
facet normal 0.0 -0.8075907718721 0.589743287530283
outer loop
vertex 1.69197988952874e-014 7.46766318372564 42.3869521932145
vertex 66.6 8.5581248064416 43.8802235236505
vertex 1.69197988952874e-014 8.5581248064416 43.8802235236505
endloop
endfacet
facet normal 0.0 -0.667729269391534 0.744404206596019
outer loop
vertex 66.6 8.5581248064416 43.8802235236505
vertex 1.69197988952874e-014 9.93456136154119 45.1148847025592
vertex 1.69197988952874e-014 8.5581248064416 43.8802235236505
endloop
endfacet
facet normal 0.0 -0.667729269391534 0.744404206596019
outer loop
vertex 1.69197988952874e-014 9.93456136154119 45.1148847025592
vertex 66.6 8.5581248064416 43.8802235236505
vertex 66.6 9.93456136154119 45.1148847025592
endloop
endfacet
facet normal 0.0 -0.498834070452191 0.866697507874632
outer loop
vertex 66.6 9.93456136154119 45.1148847025592
vertex 1.69197988952874e-014 11.5371236811544 46.0372511311951
vertex 1.69197988952874e-014 9.93456136154119 45.1148847025592
endloop
endfacet
facet normal 0.0 -0.498834070452191 0.866697507874632
outer loop
vertex 1.69197988952874e-014 11.5371236811544 46.0372511311951
vertex 66.6 9.93456136154119 45.1148847025592
vertex 66.6 11.5371236811544 46.0372511311951
endloop
endfacet
facet normal -1.05854597693239e-017 1.0 -9.59172272975475e-017
outer loop
vertex 5.6399329650958e-014 6.71059111666229 18.65
vertex 66.6 6.71059111666229 11.3
vertex 0.0 6.71059111666229 11.3
endloop
endfacet
facet normal -1.05854597693239e-017 1.0 -9.59172272975475e-017
outer loop
vertex 66.6 6.71059111666229 11.3
vertex 5.6399329650958e-014 6.71059111666229 18.65
vertex 66.6 6.71059111666229 18.65
endloop
endfacet
facet normal 0.0 -1.0 0.0
outer loop
vertex 66.6 23.5596041494009 40.7
vertex 0.0 23.5596041494009 33.35
vertex 66.6 23.5596041494009 33.35
endloop
endfacet
facet normal 0.0 -1.0 0.0
outer loop
vertex 0.0 23.5596041494009 33.35
vertex 66.6 23.5596041494009 40.7
vertex 0.0 23.5596041494009 40.7
endloop
endfacet
facet normal 0.0 0.0 -1.0
outer loop
vertex 66.6 6.71059111666229 11.3
vertex 0.0 0.0 11.3
vertex 0.0 6.71059111666229 11.3
endloop
endfacet
facet normal 0.0 0.0 -1.0
outer loop
vertex 0.0 0.0 11.3
vertex 66.6 6.71059111666229 11.3
vertex 66.6 0.0 11.3
endloop
endfacet
facet normal 0.0 1.0 0.0
outer loop
vertex 0.0 0.0 11.3
vertex 66.6 0.0 0.0
vertex 0.0 0.0 0.0
endloop
endfacet
facet normal 0.0 1.0 0.0
outer loop
vertex 66.6 0.0 0.0
vertex 0.0 0.0 11.3
vertex 66.6 0.0 11.3
endloop
endfacet
facet normal 0.0 0.0 -1.0
outer loop
vertex 66.6 30.0 11.3
vertex 0.0 23.5596041494009 11.3
vertex 0.0 30.0 11.3
endloop
endfacet
facet normal 0.0 0.0 -1.0
outer loop
vertex 0.0 23.5596041494009 11.3
vertex 66.6 30.0 11.3
vertex 66.6 23.5596041494009 11.3
endloop
endfacet
facet normal 9.34947249447275e-018 -0.912337226371011 0.409439599181186
outer loop
vertex 66.6 7.46766318372564 42.3869521932145
vertex 0.0 6.71059111666229 40.7
vertex 66.6 6.71059111666229 40.7
endloop
endfacet
facet normal 9.34947249447275e-018 -0.912337226371011 0.409439599181186
outer loop
vertex 0.0 6.71059111666229 40.7
vertex 66.6 7.46766318372564 42.3869521932145
vertex 1.69197988952874e-014 7.46766318372564 42.3869521932145
endloop
endfacet
facet normal -1.0 -1.80710890952866e-015 1.4010701946279e-016
outer loop
vertex 1.69197988952874e-014 7.46766318372564 42.3869521932145
vertex 5.6399329650958e-014 6.71059111666229 33.35
vertex 0.0 6.71059111666229 40.7
endloop
endfacet
facet normal -1.0 -1.80710890952866e-015 1.4010701946279e-016
outer loop
vertex 5.6399329650958e-014 6.71059111666229 33.35
vertex 1.69197988952874e-014 7.46766318372564 42.3869521932145
vertex 5.6399329650958e-014 7.75656689202569 32.402950373821
endloop
endfacet
facet normal -1.0 -1.80710890952866e-015 1.4010701946279e-016
outer loop
vertex 5.6399329650958e-014 7.75656689202569 32.402950373821
vertex 1.69197988952874e-014 7.46766318372564 42.3869521932145
vertex 1.69197988952874e-014 8.5581248064416 43.8802235236505
endloop
endfacet
facet normal -1.0 -1.80710890952866e-015 1.4010701946279e-016
outer loop
vertex 5.6399329650958e-014 7.75656689202569 32.402950373821
vertex 1.69197988952874e-014 8.5581248064416 43.8802235236505
vertex 5.6399329650958e-014 8.64728518149406 31.3086061656764
endloop
endfacet
facet normal -1.0 -1.80710890952866e-015 1.4010701946279e-016
outer loop
vertex 5.6399329650958e-014 8.64728518149406 31.3086061656764
vertex 1.69197988952874e-014 8.5581248064416 43.8802235236505
vertex 1.69197988952874e-014 9.93456136154119 45.1148847025592
endloop
endfacet
facet normal -1.0 -1.80710890952866e-015 1.4010701946279e-016
outer loop
vertex 5.6399329650958e-014 8.64728518149406 31.3086061656764
vertex 1.69197988952874e-014 9.93456136154119 45.1148847025592
vertex 5.6399329650958e-014 9.36225574690583 30.0921418597111
endloop
endfacet
facet normal -1.0 -1.80710890952866e-015 1.4010701946279e-016
outer loop
vertex 5.6399329650958e-014 9.36225574690583 30.0921418597111
vertex 1.69197988952874e-014 9.93456136154119 45.1148847025592
vertex 5.6399329650958e-014 9.88503128125382 28.7815412120003
endloop
endfacet
facet normal -1.0 -1.80710890952866e-015 1.4010701946279e-016
outer loop
vertex 5.6399329650958e-014 9.88503128125382 28.7815412120003
vertex 1.69197988952874e-014 9.93456136154119 45.1148847025592
vertex 5.6399329650958e-014 10.2035857653909 27.406953507367
endloop
endfacet
facet normal -1.0 -1.80710890952866e-015 1.4010701946279e-016
outer loop
vertex 5.6399329650958e-014 10.2035857653909 27.406953507367
vertex 1.69197988952874e-014 9.93456136154119 45.1148847025592
vertex 1.69197988952874e-014 11.5371236811544 46.0372511311951
endloop
endfacet
facet normal -1.0 -1.80710890952866e-015 1.4010701946279e-016
outer loop
vertex 5.6399329650958e-014 10.2035857653909 27.406953507367
vertex 1.69197988952874e-014 11.5371236811544 46.0372511311951
vertex 5.6399329650958e-014 10.3105911166623 26.0
endloop
endfacet
facet normal -1.0 -1.80710890952866e-015 1.4010701946279e-016
outer loop
vertex 1.69197988952874e-014 20.335633904522 45.1148847025592
vertex 0.0 19.6596041494008 26.0
vertex 1.69197988952874e-014 18.7330715849087 46.0372511311951
endloop
endfacet
facet normal -1.0 -1.80710890952866e-015 1.4010701946279e-016
outer loop
vertex 0.0 19.6596041494008 26.0
vertex 1.69197988952874e-014 20.335633904522 45.1148847025592
vertex 0.0 19.7766980235225 27.4369865938238
endloop
endfacet
facet normal -1.0 -1.80710890952866e-015 1.4010701946279e-016
outer loop
vertex 0.0 19.7766980235225 27.4369865938238
vertex 1.69197988952874e-014 20.335633904522 45.1148847025592
vertex 0.0 20.1248901833436 28.8360590244097
endloop
endfacet
facet normal -1.0 -1.80710890952866e-015 1.4010701946279e-016
outer loop
vertex 0.0 20.1248901833436 28.8360590244097
vertex 1.69197988952874e-014 20.335633904522 45.1148847025592
vertex 0.0 20.6949937551365 30.1603034745076
endloop
endfacet
facet normal -1.0 -1.80710890952866e-015 1.4010701946279e-016
outer loop
vertex 0.0 20.6949937551365 30.1603034745076
vertex 1.69197988952874e-014 20.335633904522 45.1148847025592
vertex 1.69197988952874e-014 21.7120704596215 43.8802235236505
endloop
endfacet
facet normal -1.0 -1.80710890952866e-015 1.4010701946279e-016
outer loop
vertex 0.0 20.6949937551365 30.1603034745076
vertex 1.69197988952874e-014 21.7120704596215 43.8802235236505
vertex 0.0 21.4719668449989 31.3747804252217
endloop
endfacet
facet normal -1.0 -1.80710890952866e-015 1.4010701946279e-016
outer loop
vertex 0.0 21.4719668449989 31.3747804252217
vertex 1.69197988952874e-014 21.7120704596215 43.8802235236505
vertex 0.0 22.4353094116032 32.4474465175145
endloop
endfacet
facet normal -1.0 -1.80710890952866e-015 1.4010701946279e-016
outer loop
vertex 0.0 22.4353094116032 32.4474465175145
vertex 1.69197988952874e-014 21.7120704596215 43.8802235236505
vertex 1.69197988952874e-014 22.8025320823375 42.3869521932145
endloop
endfacet
facet normal -1.0 -1.80710890952866e-015 1.4010701946279e-016
outer loop
vertex 0.0 22.4353094116032 32.4474465175145
vertex 1.69197988952874e-014 22.8025320823375 42.3869521932145
vertex 0.0 23.5596041494009 33.35
endloop
endfacet
facet normal -1.0 -1.80710890952866e-015 1.4010701946279e-016
outer loop
vertex 0.0 23.5596041494009 33.35
vertex 1.69197988952874e-014 22.8025320823375 42.3869521932145
vertex 0.0 23.5596041494009 40.7
endloop
endfacet
facet normal -1.0 -1.80710890952866e-015 1.4010701946279e-016
outer loop
vertex 0.0 6.71059111666229 11.3
vertex 0.0 0.0 0.0
vertex 0.0 0.0 11.3
endloop
endfacet
facet normal -1.0 -1.80710890952866e-015 1.4010701946279e-016
outer loop
vertex 0.0 0.0 0.0
vertex 0.0 6.71059111666229 11.3
vertex 0.0 30.0 0.0
endloop
endfacet
facet normal -1.0 -1.80710890952866e-015 1.4010701946279e-016
outer loop
vertex 0.0 30.0 0.0
vertex 0.0 6.71059111666229 11.3
vertex 5.6399329650958e-014 6.71059111666229 18.65
endloop
endfacet
facet normal -1.0 -1.80710890952866e-015 1.4010701946279e-016
outer loop
vertex 0.0 30.0 0.0
vertex 5.6399329650958e-014 6.71059111666229 18.65
vertex 5.6399329650958e-014 7.7565668920257 19.597049626179
endloop
endfacet
facet normal -1.0 -1.80710890952866e-015 1.4010701946279e-016
outer loop
vertex 0.0 30.0 0.0
vertex 5.6399329650958e-014 7.7565668920257 19.597049626179
vertex 5.6399329650958e-014 8.64728518149406 20.6913938343236
endloop
endfacet
facet normal -1.0 -1.80710890952866e-015 1.4010701946279e-016
outer loop
vertex 0.0 30.0 0.0
vertex 5.6399329650958e-014 8.64728518149406 20.6913938343236
vertex 5.6399329650958e-014 9.36225574690583 21.9078581402889
endloop
endfacet
facet normal -1.0 -1.80710890952866e-015 1.4010701946279e-016
outer loop
vertex 0.0 30.0 0.0
vertex 5.6399329650958e-014 9.36225574690583 21.9078581402889
vertex 5.6399329650958e-014 9.88503128125382 23.2184587879997
endloop
endfacet
facet normal -1.0 -1.80710890952866e-015 1.4010701946279e-016
outer loop
vertex 0.0 30.0 0.0
vertex 5.6399329650958e-014 9.88503128125382 23.2184587879997
vertex 5.6399329650958e-014 10.2035857653909 24.593046492633
endloop
endfacet
facet normal -1.0 -1.80710890952866e-015 1.4010701946279e-016
outer loop
vertex 0.0 30.0 0.0
vertex 5.6399329650958e-014 10.2035857653909 24.593046492633
vertex 5.6399329650958e-014 10.3105911166623 26.0
endloop
endfacet
facet normal -1.0 -1.80710890952866e-015 1.4010701946279e-016
outer loop
vertex 0.0 30.0 0.0
vertex 5.6399329650958e-014 10.3105911166623 26.0
vertex 0.0 23.5596041494009 11.3
endloop
endfacet
facet normal -1.0 -1.80710890952866e-015 1.4010701946279e-016
outer loop
vertex 0.0 23.5596041494009 11.3
vertex 5.6399329650958e-014 10.3105911166623 26.0
vertex 1.69197988952874e-014 11.5371236811544 46.0372511311951
endloop
endfacet
facet normal -1.0 -1.80710890952866e-015 1.4010701946279e-016
outer loop
vertex 0.0 23.5596041494009 11.3
vertex 1.69197988952874e-014 11.5371236811544 46.0372511311951
vertex 1.69197988952874e-014 13.296130368828 46.607217173726
endloop
endfacet
facet normal -1.0 -1.80710890952866e-015 1.4010701946279e-016
outer loop
vertex 0.0 23.5596041494009 11.3
vertex 1.69197988952874e-014 13.296130368828 46.607217173726
vertex 0.0 20.1248901833436 23.1639409755903
endloop
endfacet
facet normal -1.0 -1.80710890952866e-015 1.4010701946279e-016
outer loop
vertex 0.0 20.1248901833436 23.1639409755903
vertex 1.69197988952874e-014 13.296130368828 46.607217173726
vertex 0.0 19.7766980235225 24.5630134061762
endloop
endfacet
facet normal -1.0 -1.80710890952866e-015 1.4010701946279e-016
outer loop
vertex 0.0 19.7766980235225 24.5630134061762
vertex 1.69197988952874e-014 13.296130368828 46.607217173726
vertex 1.69197988952874e-014 15.1350976330316 46.8
endloop
endfacet
facet normal -1.0 -1.80710890952866e-015 1.4010701946279e-016
outer loop
vertex 0.0 19.7766980235225 24.5630134061762
vertex 1.69197988952874e-014 15.1350976330316 46.8
vertex 1.69197988952874e-014 16.9740648972352 46.607217173726
endloop
endfacet
facet normal -1.0 -1.80710890952866e-015 1.4010701946279e-016
outer loop
vertex 0.0 19.7766980235225 24.5630134061762
vertex 1.69197988952874e-014 16.9740648972352 46.607217173726
vertex 0.0 19.6596041494008 26.0
endloop
endfacet
facet normal -1.0 -1.80710890952866e-015 1.4010701946279e-016
outer loop
vertex 0.0 19.6596041494008 26.0
vertex 1.69197988952874e-014 16.9740648972352 46.607217173726
vertex 1.69197988952874e-014 18.7330715849087 46.0372511311951
endloop
endfacet
facet normal -1.0 -1.80710890952866e-015 1.4010701946279e-016
outer loop
vertex 0.0 23.5596041494009 11.3
vertex 0.0 20.1248901833436 23.1639409755903
vertex 0.0 20.6949937551365 21.8396965254924
endloop
endfacet
facet normal -1.0 -1.80710890952866e-015 1.4010701946279e-016
outer loop
vertex 0.0 23.5596041494009 11.3
vertex 0.0 20.6949937551365 21.8396965254924
vertex 0.0 21.4719668449989 20.6252195747783
endloop
endfacet
facet normal -1.0 -1.80710890952866e-015 1.4010701946279e-016
outer loop
vertex 0.0 23.5596041494009 11.3
vertex 0.0 21.4719668449989 20.6252195747783
vertex 0.0 22.4353094116032 19.5525534824856
endloop
endfacet
facet normal -1.0 -1.80710890952866e-015 1.4010701946279e-016
outer loop
vertex 0.0 23.5596041494009 11.3
vertex 0.0 22.4353094116032 19.5525534824856
vertex 0.0 23.5596041494009 18.65
endloop
endfacet
facet normal -1.0 -1.80710890952866e-015 1.4010701946279e-016
outer loop
vertex 0.0 30.0 0.0
vertex 0.0 23.5596041494009 11.3
vertex 0.0 30.0 11.3
endloop
endfacet
facet normal -1.0 0.0 0.0
outer loop
vertex 66.6 7.7565668920257 19.597049626179
vertex 66.6 6.71059111666229 11.3
vertex 66.6 6.71059111666229 18.65
endloop
endfacet
facet normal -1.0 0.0 0.0
outer loop
vertex 66.6 7.46766318372564 42.3869521932145
vertex 66.6 6.71059111666229 33.35
vertex 66.6 6.71059111666229 40.7
endloop
endfacet
facet normal -1.0 0.0 0.0
outer loop
vertex 66.6 6.71059111666229 33.35
vertex 66.6 7.46766318372564 42.3869521932145
vertex 66.6 7.75656689202569 32.402950373821
endloop
endfacet
facet normal -1.0 0.0 0.0
outer loop
vertex 66.6 7.75656689202569 32.402950373821
vertex 66.6 7.46766318372564 42.3869521932145
vertex 66.6 8.5581248064416 43.8802235236505
endloop
endfacet
facet normal -1.0 0.0 0.0
outer loop
vertex 66.6 7.75656689202569 32.402950373821
vertex 66.6 8.5581248064416 43.8802235236505
vertex 66.6 8.64728518149406 31.3086061656764
endloop
endfacet
facet normal -1.0 0.0 0.0
outer loop
vertex 66.6 8.64728518149406 31.3086061656764
vertex 66.6 8.5581248064416 43.8802235236505
vertex 66.6 9.93456136154119 45.1148847025592
endloop
endfacet
facet normal -1.0 0.0 0.0
outer loop
vertex 66.6 8.64728518149406 31.3086061656764
vertex 66.6 9.93456136154119 45.1148847025592
vertex 66.6 9.36225574690583 30.0921418597111
endloop
endfacet
facet normal -1.0 0.0 0.0
outer loop
vertex 66.6 9.36225574690583 30.0921418597111
vertex 66.6 9.93456136154119 45.1148847025592
vertex 66.6 9.88503128125382 28.7815412120003
endloop
endfacet
facet normal -1.0 0.0 0.0
outer loop
vertex 66.6 9.88503128125382 28.7815412120003
vertex 66.6 9.93456136154119 45.1148847025592
vertex 66.6 10.2035857653909 27.406953507367
endloop
endfacet
facet normal -1.0 0.0 0.0
outer loop
vertex 66.6 10.2035857653909 27.406953507367
vertex 66.6 9.93456136154119 45.1148847025592
vertex 66.6 11.5371236811544 46.0372511311951
endloop
endfacet
facet normal -1.0 0.0 0.0
outer loop
vertex 66.6 10.2035857653909 27.406953507367
vertex 66.6 11.5371236811544 46.0372511311951
vertex 66.6 10.3105911166623 26.0
endloop
endfacet
facet normal -1.0 0.0 0.0
outer loop
vertex 66.6 20.335633904522 45.1148847025592
vertex 66.6 19.6596041494008 26.0
vertex 66.6 18.7330715849087 46.0372511311951
endloop
endfacet
facet normal -1.0 0.0 0.0
outer loop
vertex 66.6 19.6596041494008 26.0
vertex 66.6 20.335633904522 45.1148847025592
vertex 66.6 19.7766980235225 27.4369865938238
endloop
endfacet
facet normal -1.0 0.0 0.0
outer loop
vertex 66.6 19.7766980235225 27.4369865938238
vertex 66.6 20.335633904522 45.1148847025592
vertex 66.6 20.1248901833436 28.8360590244097
endloop
endfacet
facet normal -1.0 0.0 0.0
outer loop
vertex 66.6 20.1248901833436 28.8360590244097
vertex 66.6 20.335633904522 45.1148847025592
vertex 66.6 20.6949937551365 30.1603034745076
endloop
endfacet
facet normal -1.0 0.0 0.0
outer loop
vertex 66.6 20.6949937551365 30.1603034745076
vertex 66.6 20.335633904522 45.1148847025592
vertex 66.6 21.7120704596215 43.8802235236505
endloop
endfacet
facet normal -1.0 0.0 0.0
outer loop
vertex 66.6 20.6949937551365 30.1603034745076
vertex 66.6 21.7120704596215 43.8802235236505
vertex 66.6 21.4719668449989 31.3747804252217
endloop
endfacet
facet normal -1.0 0.0 0.0
outer loop
vertex 66.6 21.4719668449989 31.3747804252217
vertex 66.6 21.7120704596215 43.8802235236505
vertex 66.6 22.4353094116032 32.4474465175145
endloop
endfacet
facet normal -1.0 0.0 0.0
outer loop
vertex 66.6 22.4353094116032 32.4474465175145
vertex 66.6 21.7120704596215 43.8802235236505
vertex 66.6 22.8025320823375 42.3869521932145
endloop
endfacet
facet normal -1.0 0.0 0.0
outer loop
vertex 66.6 22.4353094116032 32.4474465175145
vertex 66.6 22.8025320823375 42.3869521932145
vertex 66.6 23.5596041494009 33.35
endloop
endfacet
facet normal -1.0 0.0 0.0
outer loop
vertex 66.6 23.5596041494009 33.35
vertex 66.6 22.8025320823375 42.3869521932145
vertex 66.6 23.5596041494009 40.7
endloop
endfacet
facet normal -1.0 0.0 0.0
outer loop
vertex 66.6 6.71059111666229 11.3
vertex 66.6 0.0 0.0
vertex 66.6 0.0 11.3
endloop
endfacet
facet normal -1.0 0.0 0.0
outer loop
vertex 66.6 0.0 0.0
vertex 66.6 6.71059111666229 11.3
vertex 66.6 30.0 0.0
endloop
endfacet
facet normal -1.0 0.0 0.0
outer loop
vertex 66.6 30.0 0.0
vertex 66.6 6.71059111666229 11.3
vertex 66.6 7.7565668920257 19.597049626179
endloop
endfacet
facet normal -1.0 0.0 0.0
outer loop
vertex 66.6 30.0 0.0
vertex 66.6 7.7565668920257 19.597049626179
vertex 66.6 8.64728518149406 20.6913938343236
endloop
endfacet
facet normal -1.0 0.0 0.0
outer loop
vertex 66.6 30.0 0.0
vertex 66.6 8.64728518149406 20.6913938343236
vertex 66.6 9.36225574690583 21.9078581402889
endloop
endfacet
facet normal -1.0 0.0 0.0
outer loop
vertex 66.6 30.0 0.0
vertex 66.6 9.36225574690583 21.9078581402889
vertex 66.6 9.88503128125382 23.2184587879997
endloop
endfacet
facet normal -1.0 0.0 0.0
outer loop
vertex 66.6 30.0 0.0
vertex 66.6 9.88503128125382 23.2184587879997
vertex 66.6 10.2035857653909 24.593046492633
endloop
endfacet
facet normal -1.0 0.0 0.0
outer loop
vertex 66.6 30.0 0.0
vertex 66.6 10.2035857653909 24.593046492633
vertex 66.6 10.3105911166623 26.0
endloop
endfacet
facet normal -1.0 0.0 0.0
outer loop
vertex 66.6 30.0 0.0
vertex 66.6 10.3105911166623 26.0
vertex 66.6 23.5596041494009 11.3
endloop
endfacet
facet normal -1.0 0.0 0.0
outer loop
vertex 66.6 23.5596041494009 11.3
vertex 66.6 10.3105911166623 26.0
vertex 66.6 11.5371236811544 46.0372511311951
endloop
endfacet
facet normal -1.0 0.0 0.0
outer loop
vertex 66.6 23.5596041494009 11.3
vertex 66.6 11.5371236811544 46.0372511311951
vertex 66.6 13.296130368828 46.607217173726
endloop
endfacet
facet normal -1.0 0.0 0.0
outer loop
vertex 66.6 23.5596041494009 11.3
vertex 66.6 13.296130368828 46.607217173726
vertex 66.6 20.1248901833436 23.1639409755903
endloop
endfacet
facet normal -1.0 0.0 0.0
outer loop
vertex 66.6 20.1248901833436 23.1639409755903
vertex 66.6 13.296130368828 46.607217173726
vertex 66.6 19.7766980235225 24.5630134061762
endloop
endfacet
facet normal -1.0 0.0 0.0
outer loop
vertex 66.6 19.7766980235225 24.5630134061762
vertex 66.6 13.296130368828 46.607217173726
vertex 66.6 15.1350976330316 46.8
endloop
endfacet
facet normal -1.0 0.0 0.0
outer loop
vertex 66.6 19.7766980235225 24.5630134061762
vertex 66.6 15.1350976330316 46.8
vertex 66.6 16.9740648972352 46.607217173726
endloop
endfacet
facet normal -1.0 0.0 0.0
outer loop
vertex 66.6 19.7766980235225 24.5630134061762
vertex 66.6 16.9740648972352 46.607217173726
vertex 66.6 19.6596041494008 26.0
endloop
endfacet
facet normal -1.0 0.0 0.0
outer loop
vertex 66.6 19.6596041494008 26.0
vertex 66.6 16.9740648972352 46.607217173726
vertex 66.6 18.7330715849087 46.0372511311951
endloop
endfacet
facet normal -1.0 0.0 0.0
outer loop
vertex 66.6 23.5596041494009 11.3
vertex 66.6 20.1248901833436 23.1639409755903
vertex 66.6 20.6949937551365 21.8396965254924
endloop
endfacet
facet normal -1.0 0.0 0.0
outer loop
vertex 66.6 23.5596041494009 11.3
vertex 66.6 20.6949937551365 21.8396965254924
vertex 66.6 21.4719668449989 20.6252195747783
endloop
endfacet
facet normal -1.0 0.0 0.0
outer loop
vertex 66.6 23.5596041494009 11.3
vertex 66.6 21.4719668449989 20.6252195747783
vertex 66.6 22.4353094116032 19.5525534824856
endloop
endfacet
facet normal -1.0 0.0 0.0
outer loop
vertex 66.6 23.5596041494009 11.3
vertex 66.6 22.4353094116032 19.5525534824856
vertex 66.6 23.5596041494009 18.65
endloop
endfacet
facet normal -1.0 0.0 0.0
outer loop
vertex 66.6 30.0 0.0
vertex 66.6 23.5596041494009 11.3
vertex 66.6 30.0 11.3
endloop
endfacet
facet normal 0.0 -1.0 -0.0
outer loop
vertex 66.6 30.0 11.3
vertex 0.0 30.0 0.0
vertex 66.6 30.0 0.0
endloop
endfacet
facet normal 0.0 -1.0 -0.0
outer loop
vertex 0.0 30.0 0.0
vertex 66.6 30.0 11.3
vertex 0.0 30.0 11.3
endloop
endfacet
endsolid stamper
